<svg id="svg" xmlns="http://www.w3.org/2000/svg" xmlns:xlink="http://www.w3.org/1999/xlink" width="400" height="225" viewBox="0, 0, 400,225"><g id="svgg"><path id="path0" d="M208.750 61.696 C 204.697 62.362,204.580 64.650,208.584 64.933 C 210.183 65.045,210.397 65.109,210.501 65.499 C 210.672 66.135,210.611 134.797,210.439 135.417 C 210.305 135.902,210.177 135.947,208.591 136.080 C 205.869 136.306,204.904 137.160,206.250 138.151 C 208.427 139.753,221.363 139.806,227.560 138.238 C 228.616 137.971,229.745 137.692,230.070 137.618 C 232.383 137.090,235.208 132.495,235.201 129.271 C 235.191 124.580,232.825 123.577,231.760 127.813 C 230.082 134.483,228.256 135.938,221.563 135.938 L 217.188 135.938 217.130 100.938 C 217.099 81.688,217.121 65.740,217.179 65.498 C 217.273 65.107,217.473 65.047,219.020 64.951 C 223.410 64.677,223.412 62.369,219.023 61.690 C 217.269 61.419,210.410 61.422,208.750 61.696 M321.882 61.933 C 319.352 62.961,319.739 65.000,322.463 65.000 C 323.018 65.000,323.651 65.142,323.912 65.324 L 324.375 65.649 324.372 100.585 C 324.370 119.800,324.300 135.624,324.216 135.749 C 324.131 135.875,323.460 136.040,322.724 136.115 C 319.766 136.416,319.889 138.277,322.922 139.101 C 324.627 139.564,330.158 139.626,331.812 139.201 C 334.675 138.464,334.576 136.458,331.661 136.129 L 330.361 135.982 330.503 134.085 C 330.892 128.848,331.805 128.848,338.911 134.092 C 341.461 135.975,341.527 136.042,340.807 136.042 C 339.008 136.042,338.115 136.922,338.821 137.999 C 340.022 139.833,349.896 140.157,351.766 138.424 C 352.886 137.385,352.198 136.377,350.211 136.146 C 347.409 135.821,338.750 127.257,338.750 124.811 C 338.750 122.834,341.449 120.640,344.373 120.240 C 346.030 120.014,346.501 119.290,345.719 118.174 C 344.542 116.493,334.765 116.453,333.095 118.123 L 332.506 118.712 332.064 117.228 C 331.294 114.640,331.117 112.281,330.521 96.667 C 330.005 83.117,329.686 78.357,328.842 71.569 C 328.383 67.876,328.193 66.761,327.781 65.347 C 327.606 64.748,325.256 62.119,324.584 61.771 C 323.773 61.352,323.235 61.384,321.882 61.933 M150.338 62.093 C 149.211 62.376,147.553 63.239,146.536 64.073 L 145.677 64.777 145.540 63.743 C 145.328 62.151,144.971 62.002,141.713 62.143 C 140.255 62.206,138.706 62.376,138.270 62.521 C 135.811 63.340,135.900 65.298,138.412 65.638 C 139.068 65.727,139.741 65.913,139.907 66.051 C 140.170 66.269,140.203 70.905,140.157 101.117 L 140.104 135.932 138.967 136.095 C 136.097 136.508,135.966 138.264,138.740 139.119 C 140.378 139.623,145.869 139.624,147.504 139.121 C 150.230 138.281,150.343 136.410,147.685 136.111 C 147.068 136.041,146.445 135.892,146.302 135.779 C 145.471 135.124,146.063 70.744,146.915 69.071 C 148.642 65.683,153.313 65.424,154.401 68.656 C 154.679 69.482,154.968 134.446,154.698 135.544 C 154.607 135.915,154.388 136.001,153.287 136.101 C 150.522 136.352,150.409 138.283,153.110 139.119 C 154.747 139.627,160.711 139.606,162.077 139.089 C 164.684 138.101,164.568 136.381,161.875 136.086 L 160.521 135.938 160.413 102.188 C 160.298 65.958,160.363 67.994,159.240 65.774 C 157.677 62.686,154.013 61.171,150.338 62.093 M64.667 103.949 C 58.400 104.918,54.392 110.658,55.694 116.797 C 56.667 121.385,59.133 123.181,67.235 125.202 C 74.371 126.982,75.840 128.000,75.829 131.160 C 75.815 134.888,72.463 137.381,68.408 136.678 C 63.975 135.910,60.816 132.573,59.280 127.036 C 58.806 125.326,57.413 124.908,56.264 126.131 C 55.053 127.420,54.747 136.443,55.839 138.648 C 56.617 140.218,58.006 140.222,59.684 138.660 L 60.664 137.747 62.155 138.549 C 71.843 143.762,83.196 136.925,81.260 127.045 C 80.318 122.238,77.522 120.248,68.750 118.142 C 63.388 116.855,62.247 116.317,61.466 114.703 C 60.182 112.050,61.822 108.531,64.737 107.684 C 69.213 106.384,73.230 109.463,75.304 115.783 C 75.910 117.628,76.186 117.917,77.350 117.917 C 78.857 117.917,79.371 116.297,79.364 111.563 C 79.355 104.894,77.893 102.677,75.250 105.320 C 74.376 106.194,74.238 106.264,73.859 106.020 C 71.103 104.252,67.687 103.482,64.667 103.949 M254.875 104.552 C 253.585 105.156,253.021 106.084,253.021 107.604 C 253.021 111.833,259.476 112.217,259.949 108.016 C 260.254 105.309,257.409 103.366,254.875 104.552 M106.875 116.240 C 100.505 116.974,96.219 122.469,99.616 125.547 C 102.719 128.359,107.224 125.161,105.148 121.619 C 104.511 120.532,104.571 120.415,106.034 119.899 C 109.062 118.830,111.669 120.566,111.663 123.646 C 111.660 125.178,111.536 125.353,110.347 125.506 C 105.400 126.143,100.153 128.570,98.574 130.953 C 96.217 134.512,97.751 138.730,101.837 139.926 C 105.162 140.900,110.995 139.638,112.203 137.683 C 112.269 137.576,112.740 137.954,113.251 138.521 C 115.270 140.767,118.450 140.897,121.142 138.843 C 122.888 137.511,121.080 135.018,119.065 135.978 C 117.622 136.667,117.619 136.656,117.497 128.274 C 117.437 124.239,117.304 120.750,117.201 120.521 C 115.725 117.247,111.899 115.661,106.875 116.240 M251.979 117.070 C 248.943 117.809,249.110 120.196,252.200 120.205 C 254.159 120.211,254.054 119.789,254.123 127.952 C 254.197 136.627,254.323 135.947,252.619 136.106 C 248.807 136.462,249.693 138.763,253.877 139.368 C 257.169 139.843,261.752 139.489,262.977 138.663 C 264.452 137.670,263.585 136.353,261.302 136.117 L 260.000 135.982 260.000 132.314 C 259.999 120.263,257.599 115.702,251.979 117.070 M279.946 117.173 C 277.627 118.000,277.521 119.864,279.779 120.119 C 281.900 120.359,281.754 119.861,281.885 127.327 C 281.991 133.447,282.027 133.927,282.464 135.030 C 284.524 140.228,290.837 141.594,295.616 137.875 L 296.545 137.152 296.866 137.795 C 297.893 139.848,305.074 140.069,305.813 138.070 C 306.205 137.010,305.479 136.312,303.778 136.110 C 302.177 135.921,302.216 136.063,302.060 129.818 C 301.802 119.479,300.408 116.596,295.826 116.924 C 292.601 117.155,291.207 119.733,294.111 120.098 C 294.657 120.167,295.339 120.341,295.625 120.484 L 296.146 120.746 296.146 126.050 C 296.146 131.004,296.117 131.417,295.707 132.302 C 293.991 136.011,289.793 136.857,288.301 133.794 C 287.858 132.885,287.812 132.442,287.680 127.813 C 287.493 121.316,287.054 119.474,285.330 117.960 C 284.118 116.896,281.709 116.544,279.946 117.173 M335.469 120.338 C 336.023 120.500,335.916 120.773,334.948 121.670 L 334.063 122.491 333.728 121.713 C 332.931 119.860,333.173 119.669,335.469 120.338 M111.438 128.942 C 111.854 129.205,111.591 132.036,111.032 133.301 C 109.298 137.231,104.307 137.951,104.005 134.315 C 103.811 131.972,105.074 130.484,108.087 129.505 C 110.500 128.721,110.966 128.643,111.438 128.942 " stroke="none" fill="#000000" fill-rule="evenodd"></path></g></svg>